<svg width="20" height="25" viewBox="0 0 20 25" fill="none" xmlns="http://www.w3.org/2000/svg">
<path d="M9.9994 24.9998C8.3153 23.5633 6.7543 21.9885 5.3327 20.2918C3.19935 17.7438 0.666017 13.9491 0.666017 10.3331C0.665087 8.4864 1.21203 6.68092 2.23761 5.14516C3.26319 3.60941 4.7213 2.41241 6.4274 1.70566C8.1336 0.998913 10.011 0.814183 11.8222 1.17485C13.6333 1.53552 15.2968 2.42537 16.602 3.7318C17.471 4.59694 18.1598 5.62585 18.6285 6.75896C19.0973 7.8921 19.3366 9.1069 19.3327 10.3331C19.3327 13.9491 16.7994 17.7438 14.666 20.2918C13.2444 21.9885 11.6834 23.5633 9.9994 24.9998ZM9.9994 6.33313C8.9385 6.33313 7.9211 6.75456 7.1709 7.5047C6.4208 8.2548 5.9994 9.2723 5.9994 10.3331C5.9994 11.394 6.4208 12.4114 7.1709 13.1616C7.9211 13.9117 8.9385 14.3331 9.9994 14.3331C11.0602 14.3331 12.0776 13.9117 12.8278 13.1616C13.5779 12.4114 13.9994 11.394 13.9994 10.3331C13.9994 9.2723 13.5779 8.2548 12.8278 7.5047C12.0776 6.75456 11.0602 6.33313 9.9994 6.33313Z" fill="#2727FF"/>
</svg>
