<svg width="28" height="22" viewBox="0 0 28 22" fill="none" xmlns="http://www.w3.org/2000/svg">
<path d="M27.3327 6.4775V17.3335C27.3328 18.4403 26.9093 19.5053 26.1491 20.3098C25.389 21.1143 24.3498 21.5975 23.2447 21.6602L22.9993 21.6668H4.99935C3.8925 21.6669 2.82758 21.2434 2.02304 20.4833C1.2185 19.7231 0.735346 18.6839 0.672676 17.5788L0.666016 17.3335V6.4775L13.5353 13.2188C13.6785 13.2938 13.8377 13.333 13.9993 13.333C14.161 13.333 14.3202 13.2938 14.4633 13.2188L27.3327 6.4775ZM4.99935 0.333496H22.9993C24.0735 0.333366 25.1093 0.732156 25.9061 1.45252C26.7028 2.17288 27.2036 3.16347 27.3113 4.23216L13.9993 11.2055L0.687346 4.23216C0.790706 3.20591 1.25675 2.25019 2.00168 1.53678C2.74662 0.823366 3.72159 0.399076 4.75135 0.340156L4.99935 0.333496H22.9993H4.99935Z" fill="#2727FF"/>
</svg>
