<svg width="16" height="28" viewBox="0 0 16 28" fill="none" xmlns="http://www.w3.org/2000/svg">
<path d="M0.586821 1.2721C0.211821 1.64715 0.0012207 2.15577 0.0012207 2.6861C0.0012207 3.21642 0.211821 3.72504 0.586821 4.1001L10.4868 14.0001L0.586821 23.9001C0.222521 24.2773 0.0209211 24.7825 0.0254211 25.3069C0.0300211 25.8313 0.240321 26.3329 0.611121 26.7037C0.982021 27.0746 1.48362 27.2849 2.00802 27.2894C2.53242 27.294 3.03762 27.0924 3.41482 26.7281L14.7288 15.4141C15.1037 15.039 15.3144 14.5304 15.3144 14.0001C15.3144 13.4698 15.1037 12.9612 14.7288 12.5861L3.41482 1.2721C3.03972 0.897153 2.53112 0.686523 2.00082 0.686523C1.47052 0.686523 0.961821 0.897153 0.586821 1.2721Z" fill="#2727FF"/>
</svg>
