<svg width="171" height="113" viewBox="0 0 171 113" fill="none" xmlns="http://www.w3.org/2000/svg">
<path d="M38.875 112.491C30.8494 112.491 24.0135 110.308 18.3672 105.94C12.7209 101.536 8.40625 95.1619 5.4233 86.8168C2.44034 78.4361 0.948864 68.3153 0.948864 56.4545C0.948864 44.6648 2.44034 34.5973 5.4233 26.2521C8.44176 17.8714 12.7741 11.4794 18.4205 7.07599C24.1023 2.63707 30.9205 0.41761 38.875 0.41761C46.8295 0.41761 53.63 2.63707 59.2763 7.07599C64.9581 11.4794 69.2905 17.8714 72.2734 26.2521C75.2919 34.5973 76.8011 44.6648 76.8011 56.4545C76.8011 68.3153 75.3097 78.4361 72.3267 86.8168C69.3438 95.1619 65.0291 101.536 59.3828 105.94C53.7365 110.308 46.9006 112.491 38.875 112.491ZM38.875 100.773C46.8295 100.773 53.0085 96.9375 57.4119 89.267C61.8153 81.5966 64.017 70.6591 64.017 56.4545C64.017 47.0085 63.005 38.9652 60.9808 32.3246C58.9922 25.6839 56.1158 20.6236 52.3516 17.1435C48.6229 13.6634 44.1307 11.9233 38.875 11.9233C30.9915 11.9233 24.8303 15.8118 20.3913 23.5888C15.9524 31.3303 13.733 42.2855 13.733 56.4545C13.733 65.9006 14.7273 73.9261 16.7159 80.5312C18.7045 87.1364 21.5632 92.1612 25.2919 95.6058C29.0561 99.0504 33.5838 100.773 38.875 100.773ZM133.903 112.491C126.872 112.491 120.604 111.284 115.1 108.869C109.631 106.455 105.281 103.099 102.05 98.8018C98.8537 94.4695 97.1136 89.4446 96.8295 83.7273H110.253C110.537 87.2429 111.744 90.2791 113.875 92.8359C116.006 95.3572 118.793 97.3104 122.238 98.6953C125.683 100.08 129.5 100.773 133.69 100.773C138.378 100.773 142.533 99.956 146.155 98.3224C149.777 96.6889 152.618 94.4162 154.678 91.5043C156.737 88.5923 157.767 85.2188 157.767 81.3835C157.767 77.3707 156.773 73.8374 154.784 70.7834C152.795 67.6939 149.884 65.2791 146.048 63.5391C142.213 61.799 137.526 60.929 131.986 60.929H123.25V49.2102H131.986C136.318 49.2102 140.118 48.429 143.385 46.8665C146.688 45.304 149.262 43.1023 151.109 40.2614C152.991 37.4205 153.932 34.0824 153.932 30.2472C153.932 26.554 153.115 23.3402 151.482 20.6058C149.848 17.8714 147.54 15.7408 144.557 14.2138C141.609 12.6868 138.129 11.9233 134.116 11.9233C130.352 11.9233 126.801 12.6158 123.463 14.0007C120.161 15.3501 117.462 17.321 115.366 19.9134C113.271 22.4702 112.135 25.5597 111.957 29.1818H99.1733C99.3864 23.4645 101.109 18.4574 104.34 14.1605C107.572 9.82812 111.798 6.45454 117.018 4.03977C122.273 1.625 128.044 0.41761 134.33 0.41761C141.077 0.41761 146.865 1.7848 151.695 4.51917C156.524 7.21803 160.235 10.7869 162.827 15.2259C165.42 19.6648 166.716 24.4588 166.716 29.608C166.716 35.7514 165.1 40.9893 161.869 45.3217C158.673 49.6541 154.322 52.6548 148.818 54.3239V55.1761C155.707 56.3125 161.087 59.2422 164.958 63.9652C168.829 68.6527 170.764 74.4588 170.764 81.3835C170.764 87.3139 169.148 92.6406 165.917 97.3636C162.721 102.051 158.353 105.744 152.813 108.443C147.273 111.142 140.97 112.491 133.903 112.491Z" fill="#ECECEC"/>
</svg>
