<svg width="166" height="113" viewBox="0 0 166 113" fill="none" xmlns="http://www.w3.org/2000/svg">
<path d="M38.875 112.491C30.8494 112.491 24.0135 110.308 18.3672 105.94C12.7209 101.536 8.40625 95.1619 5.4233 86.8168C2.44034 78.4361 0.948864 68.3153 0.948864 56.4545C0.948864 44.6648 2.44034 34.5973 5.4233 26.2521C8.44176 17.8714 12.7741 11.4794 18.4205 7.07599C24.1023 2.63707 30.9205 0.41761 38.875 0.41761C46.8295 0.41761 53.63 2.63707 59.2763 7.07599C64.9581 11.4794 69.2905 17.8714 72.2734 26.2521C75.2919 34.5973 76.8011 44.6648 76.8011 56.4545C76.8011 68.3153 75.3097 78.4361 72.3267 86.8168C69.3438 95.1619 65.0291 101.536 59.3828 105.94C53.7365 110.308 46.9006 112.491 38.875 112.491ZM38.875 100.773C46.8295 100.773 53.0085 96.9375 57.4119 89.267C61.8153 81.5966 64.017 70.6591 64.017 56.4545C64.017 47.0085 63.005 38.9652 60.9808 32.3246C58.9922 25.6839 56.1158 20.6236 52.3516 17.1435C48.6229 13.6634 44.1307 11.9233 38.875 11.9233C30.9915 11.9233 24.8303 15.8118 20.3913 23.5888C15.9524 31.3303 13.733 42.2855 13.733 56.4545C13.733 65.9006 14.7273 73.9261 16.7159 80.5312C18.7045 87.1364 21.5632 92.1612 25.2919 95.6058C29.0561 99.0504 33.5838 100.773 38.875 100.773ZM97.0426 111V101.412L133.051 61.9943C137.277 57.3778 140.757 53.3651 143.491 49.956C146.226 46.5114 148.25 43.2798 149.564 40.2614C150.913 37.2074 151.588 34.0114 151.588 30.6733C151.588 26.8381 150.665 23.5178 148.818 20.7124C147.007 17.907 144.521 15.7408 141.361 14.2138C138.2 12.6868 134.649 11.9233 130.707 11.9233C126.517 11.9233 122.859 12.7933 119.734 14.5334C116.645 16.2379 114.248 18.6349 112.543 21.7244C110.874 24.8139 110.04 28.4361 110.04 32.5909H97.4688C97.4688 26.1989 98.9425 20.5881 101.89 15.7585C104.837 10.929 108.85 7.16477 113.928 4.4659C119.042 1.76704 124.777 0.41761 131.134 0.41761C137.526 0.41761 143.19 1.76704 148.126 4.4659C153.062 7.16477 156.933 10.8047 159.738 15.3857C162.543 19.9666 163.946 25.0625 163.946 30.6733C163.946 34.6861 163.218 38.6101 161.762 42.4453C160.342 46.245 157.856 50.4886 154.305 55.1761C150.789 59.8281 145.906 65.5099 139.656 72.2216L115.153 98.429V99.2812H165.864V111H97.0426Z" fill="#ECECEC"/>
</svg>
