<svg width="126" height="84" viewBox="0 0 126 84" fill="none" xmlns="http://www.w3.org/2000/svg">
<path d="M28.375 83.0937C22.4896 83.0937 17.4766 81.4922 13.3359 78.2891C9.19531 75.0599 6.03125 70.3854 3.84375 64.2656C1.65625 58.1198 0.5625 50.6979 0.5625 42C0.5625 33.3542 1.65625 25.9714 3.84375 19.8516C6.05729 13.7057 9.23438 9.01823 13.375 5.78906C17.5417 2.53385 22.5417 0.906247 28.375 0.906247C34.2083 0.906247 39.1953 2.53385 43.3359 5.78906C47.5026 9.01823 50.6797 13.7057 52.8672 19.8516C55.0807 25.9714 56.1875 33.3542 56.1875 42C56.1875 50.6979 55.0938 58.1198 52.9063 64.2656C50.7188 70.3854 47.5547 75.0599 43.4141 78.2891C39.2734 81.4922 34.2604 83.0937 28.375 83.0937ZM28.375 74.5C34.2083 74.5 38.7396 71.6875 41.9688 66.0625C45.1979 60.4375 46.8125 52.4167 46.8125 42C46.8125 35.0729 46.0703 29.1745 44.5859 24.3047C43.1276 19.4349 41.0182 15.724 38.2578 13.1719C35.5234 10.6198 32.2292 9.34375 28.375 9.34375C22.5938 9.34375 18.0755 12.1953 14.8203 17.8984C11.5651 23.5755 9.9375 31.6094 9.9375 42C9.9375 48.9271 10.6667 54.8125 12.125 59.6562C13.5833 64.5 15.6797 68.1849 18.4141 70.7109C21.1745 73.237 24.4948 74.5 28.375 74.5ZM98.0625 83.0937C92.9063 83.0937 88.3099 82.2083 84.2734 80.4375C80.263 78.6667 77.0729 76.2057 74.7031 73.0547C72.3594 69.8776 71.0833 66.1927 70.875 62H80.7188C80.9271 64.5781 81.8125 66.8047 83.375 68.6797C84.9375 70.5286 86.9818 71.9609 89.5078 72.9766C92.0339 73.9922 94.8333 74.5 97.9063 74.5C101.344 74.5 104.391 73.901 107.047 72.7031C109.703 71.5052 111.786 69.8385 113.297 67.7031C114.807 65.5677 115.563 63.0938 115.563 60.2812C115.563 57.3385 114.833 54.7474 113.375 52.5078C111.917 50.2422 109.781 48.4714 106.969 47.1953C104.156 45.9193 100.719 45.2812 96.6563 45.2812H90.25V36.6875H96.6563C99.8333 36.6875 102.62 36.1146 105.016 34.9687C107.438 33.8229 109.326 32.2083 110.68 30.125C112.06 28.0417 112.75 25.5937 112.75 22.7812C112.75 20.0729 112.151 17.7161 110.953 15.7109C109.755 13.7057 108.063 12.1432 105.875 11.0234C103.714 9.90364 101.161 9.34375 98.2188 9.34375C95.4583 9.34375 92.8542 9.85156 90.4063 10.8672C87.9844 11.8568 86.0052 13.3021 84.4688 15.2031C82.9323 17.0781 82.099 19.3438 81.9688 22H72.5938C72.75 17.8073 74.013 14.1354 76.3828 10.9844C78.7526 7.80729 81.8516 5.33333 85.6797 3.5625C89.5339 1.79166 93.7656 0.906247 98.375 0.906247C103.323 0.906247 107.568 1.90885 111.109 3.91406C114.651 5.89323 117.372 8.51041 119.273 11.7656C121.174 15.0208 122.125 18.5365 122.125 22.3125C122.125 26.8177 120.94 30.6589 118.57 33.8359C116.227 37.013 113.036 39.2135 109 40.4375V41.0625C114.052 41.8958 117.997 44.0443 120.836 47.5078C123.674 50.9453 125.094 55.2031 125.094 60.2812C125.094 64.6302 123.909 68.5365 121.539 72C119.195 75.4375 115.992 78.1458 111.93 80.125C107.867 82.1042 103.245 83.0937 98.0625 83.0937Z" fill="#423A3A"/>
</svg>
