<svg width="127" height="84" viewBox="0 0 127 84" fill="none" xmlns="http://www.w3.org/2000/svg">
<path d="M28.375 83.0937C22.4896 83.0937 17.4766 81.4922 13.3359 78.2891C9.19531 75.0599 6.03125 70.3854 3.84375 64.2656C1.65625 58.1198 0.5625 50.6979 0.5625 42C0.5625 33.3542 1.65625 25.9714 3.84375 19.8516C6.05729 13.7057 9.23438 9.01823 13.375 5.78906C17.5417 2.53385 22.5417 0.906247 28.375 0.906247C34.2083 0.906247 39.1953 2.53385 43.3359 5.78906C47.5026 9.01823 50.6797 13.7057 52.8672 19.8516C55.0807 25.9714 56.1875 33.3542 56.1875 42C56.1875 50.6979 55.0938 58.1198 52.9063 64.2656C50.7188 70.3854 47.5547 75.0599 43.4141 78.2891C39.2734 81.4922 34.2604 83.0937 28.375 83.0937ZM28.375 74.5C34.2083 74.5 38.7396 71.6875 41.9688 66.0625C45.1979 60.4375 46.8125 52.4167 46.8125 42C46.8125 35.0729 46.0703 29.1745 44.5859 24.3047C43.1276 19.4349 41.0182 15.724 38.2578 13.1719C35.5234 10.6198 32.2292 9.34375 28.375 9.34375C22.5938 9.34375 18.0755 12.1953 14.8203 17.8984C11.5651 23.5755 9.9375 31.6094 9.9375 42C9.9375 48.9271 10.6667 54.8125 12.125 59.6562C13.5833 64.5 15.6797 68.1849 18.4141 70.7109C21.1745 73.237 24.4948 74.5 28.375 74.5ZM69.1563 65.5937V57.625L104.312 2H110.094V14.3438H106.188L79.625 56.375V57H126.969V65.5937H69.1563ZM106.813 82V63.1719V59.4609V2H116.031V82H106.813Z" fill="#423A3A"/>
</svg>
