<svg width="122" height="84" viewBox="0 0 122 84" fill="none" xmlns="http://www.w3.org/2000/svg">
<path d="M28.375 83.0937C22.4896 83.0937 17.4766 81.4922 13.3359 78.2891C9.19531 75.0599 6.03125 70.3854 3.84375 64.2656C1.65625 58.1198 0.5625 50.6979 0.5625 42C0.5625 33.3542 1.65625 25.9714 3.84375 19.8516C6.05729 13.7057 9.23438 9.01823 13.375 5.78906C17.5417 2.53385 22.5417 0.906247 28.375 0.906247C34.2083 0.906247 39.1953 2.53385 43.3359 5.78906C47.5026 9.01823 50.6797 13.7057 52.8672 19.8516C55.0807 25.9714 56.1875 33.3542 56.1875 42C56.1875 50.6979 55.0938 58.1198 52.9063 64.2656C50.7188 70.3854 47.5547 75.0599 43.4141 78.2891C39.2734 81.4922 34.2604 83.0937 28.375 83.0937ZM28.375 74.5C34.2083 74.5 38.7396 71.6875 41.9688 66.0625C45.1979 60.4375 46.8125 52.4167 46.8125 42C46.8125 35.0729 46.0703 29.1745 44.5859 24.3047C43.1276 19.4349 41.0182 15.724 38.2578 13.1719C35.5234 10.6198 32.2292 9.34375 28.375 9.34375C22.5938 9.34375 18.0755 12.1953 14.8203 17.8984C11.5651 23.5755 9.9375 31.6094 9.9375 42C9.9375 48.9271 10.6667 54.8125 12.125 59.6562C13.5833 64.5 15.6797 68.1849 18.4141 70.7109C21.1745 73.237 24.4948 74.5 28.375 74.5ZM71.0313 82V74.9688L97.4375 46.0625C100.536 42.6771 103.089 39.7344 105.094 37.2344C107.099 34.7083 108.583 32.3385 109.547 30.125C110.536 27.8854 111.031 25.5417 111.031 23.0937C111.031 20.2813 110.354 17.8464 109 15.7891C107.672 13.7318 105.849 12.1432 103.531 11.0234C101.214 9.90364 98.6094 9.34375 95.7187 9.34375C92.6458 9.34375 89.9635 9.98177 87.6719 11.2578C85.4063 12.5078 83.6484 14.2656 82.3984 16.5312C81.1745 18.7969 80.5625 21.4531 80.5625 24.5H71.3438C71.3438 19.8125 72.4245 15.6979 74.5859 12.1562C76.7474 8.61458 79.6901 5.85416 83.4141 3.875C87.1641 1.89583 91.3698 0.906247 96.0312 0.906247C100.719 0.906247 104.872 1.89583 108.492 3.875C112.112 5.85416 114.951 8.52343 117.008 11.8828C119.065 15.2422 120.094 18.9792 120.094 23.0937C120.094 26.0365 119.56 28.9141 118.492 31.7266C117.451 34.513 115.628 37.625 113.023 41.0625C110.445 44.474 106.865 48.6406 102.281 53.5625L84.3125 72.7812V73.4062H121.5V82H71.0313Z" fill="#423A3A"/>
</svg>
